# Blender v2.93.1 OBJ File: 'stage.blend'
# www.blender.org
mtllib stage.mtl
o Cube_Cube.003
v -21.182590 0.029365 22.172361
v -16.351271 2.750719 17.341042
v -21.182590 0.029365 -21.219723
v -16.351271 2.750719 -16.388403
v 22.209494 0.029365 22.172361
v 17.378174 2.750719 17.341042
v 22.209494 0.029365 -21.219723
v 17.378174 2.750719 -16.388403
v -19.896709 2.750719 20.886480
v -19.896709 2.750719 -19.933842
v 20.923613 2.750719 -19.933842
v 20.923613 2.750719 20.886480
v -14.035542 5.646275 15.025312
v -14.035542 5.646275 -14.072676
v 15.062446 5.646275 -14.072676
v 15.062446 5.646275 15.025312
v -25.464050 14.519739 -23.367889
v -21.748158 10.511797 -21.722130
v -26.791592 16.427164 -23.561768
v 19.311651 2.755754 17.341042
v 19.311651 2.755754 -16.388403
v 17.615200 5.651309 -14.691953
v 17.615200 5.651309 15.644590
v -18.284746 2.755754 -16.388403
v -18.284746 2.755754 17.341042
v -16.588297 5.651309 15.644590
v -16.588297 5.651309 -14.691953
v -16.351271 2.755754 19.274517
v 17.378174 2.755754 19.274517
v 15.681725 5.651309 17.578068
v -14.654819 5.651309 17.578068
v 17.378174 2.755754 -18.321880
v -16.351271 2.755754 -18.321880
v -14.654819 5.651309 -16.625429
v 15.681725 5.651309 -16.625429
v -14.654819 5.646275 15.644590
v -14.654819 5.646275 -14.691953
v 15.681725 5.646275 -14.691953
v 15.681725 5.646275 15.644590
v -14.654819 5.188638 15.644590
v -14.654819 5.188638 -14.691953
v 15.681725 5.188638 -14.691953
v 15.681725 5.188638 15.644590
v -14.035542 5.188638 15.025312
v -14.035542 5.188638 -14.072676
v 15.062446 5.188638 -14.072676
v 15.062446 5.188638 15.025312
v -16.351271 2.750719 17.341042
v -14.654819 5.646275 15.644590
v -16.588297 5.651309 15.644590
v -18.284746 2.755754 17.341042
v -16.351271 2.755754 19.274517
v -14.654819 5.651309 17.578068
v -16.351271 2.750719 17.341042
v -14.654819 5.646275 15.644590
v -16.588297 5.651309 15.644590
v -18.284746 2.755754 17.341042
v -16.351271 2.755754 19.274517
v -14.654819 5.651309 17.578068
v -19.896709 2.750719 20.886480
v -19.896709 2.750719 -19.933842
v 20.923613 2.750719 20.886480
v -16.351271 2.750719 17.341042
v -16.351271 2.750719 -16.388403
v 17.378174 2.750719 17.341042
vt 0.577510 0.124852
vt 0.577510 0.124852
vt 0.577510 0.124852
vt 0.577510 0.124852
vt 0.577510 0.124852
vt 0.577510 0.124852
vt 0.577510 0.124852
vt 0.577510 0.124852
vt 0.577510 0.124852
vt 0.577510 0.124852
vt 0.577510 0.124852
vt 0.577510 0.124852
vt 0.577510 0.124852
vt 0.577510 0.124852
vt 0.577510 0.124852
vt 0.379085 0.344980
vt 0.379085 0.344980
vt 0.379085 0.344980
vt 0.379085 0.344980
vt 0.410089 0.155856
vt 0.410089 0.155856
vt 0.410089 0.155856
vt 0.410089 0.155856
vt 0.134154 0.847244
vt 0.134154 0.847244
vt 0.134154 0.847244
vt 0.134154 0.847244
vt 0.410089 0.155856
vt 0.410089 0.155856
vt 0.375984 0.109351
vt 0.375984 0.109351
vt 0.375984 0.109351
vt 0.375984 0.109351
vt 0.410089 0.155856
vt 0.410089 0.155856
vt 0.410089 0.155856
vt 0.410089 0.155856
vt 0.410089 0.155856
vt 0.410089 0.155856
vt 0.134154 0.847244
vt 0.134154 0.847244
vt 0.134154 0.847244
vt 0.134154 0.847244
vt 0.134154 0.847244
vt 0.134154 0.847244
vt 0.134154 0.847244
vt 0.134154 0.847244
vt 0.375984 0.109351
vt 0.375984 0.109351
vt 0.375984 0.109351
vt 0.375984 0.109351
vt 0.410089 0.155856
vt 0.410089 0.155856
vt 0.410089 0.155856
vt 0.410089 0.155856
vt 0.410089 0.155856
vt 0.410089 0.155856
vt 0.134154 0.847244
vt 0.134154 0.847244
vt 0.375984 0.109351
vt 0.375984 0.109351
vt 0.410089 0.155856
vt 0.410089 0.155856
vt 0.410089 0.155856
vt 0.410089 0.155856
vt 0.410089 0.155856
vt 0.410089 0.155856
vt 0.134154 0.847244
vt 0.134154 0.847244
vt 0.375984 0.109351
vt 0.375984 0.109351
vt 0.134154 0.847244
vt 0.134154 0.847244
vt 0.134154 0.847244
vt 0.134154 0.847244
vt 0.379085 0.344980
vt 0.379085 0.344980
vt 0.379085 0.344980
vt 0.379085 0.344980
vt 0.134154 0.847244
vt 0.134154 0.847244
vt 0.630216 0.611614
vt 0.630216 0.611614
vt 0.630216 0.611614
vt 0.630216 0.611614
vt 0.630216 0.611614
vt 0.630216 0.611614
vt 0.630216 0.611614
vt 0.630216 0.611614
vt 0.134154 0.847244
vt 0.410089 0.155856
vt 0.410089 0.155856
vt 0.134154 0.847244
vt 0.134154 0.847244
vt 0.134154 0.847244
vt 0.134154 0.847244
vt 0.134154 0.847244
vt 0.134154 0.847244
vt 0.134154 0.847244
vt 0.410089 0.155856
vt 0.410089 0.155856
vt 0.410089 0.155856
vt 0.410089 0.155856
vt 0.410089 0.155856
vt 0.410089 0.155856
vt 0.134154 0.847244
vt 0.134154 0.847244
vt 0.134154 0.847244
vt 0.134154 0.847244
vt 0.577510 0.124852
vt 0.577510 0.124852
vt 0.134154 0.847244
vt 0.134154 0.847244
vt 0.134154 0.847244
vn -0.9041 0.4272 0.0000
vn 0.0000 0.4272 -0.9041
vn 0.9041 0.4272 0.0000
vn 0.0000 0.4272 0.9041
vn 0.0000 -1.0000 0.0000
vn 0.0000 0.0000 1.0000
vn 0.0000 1.0000 -0.0000
vn 0.8628 0.5055 0.0000
vn 0.0026 -1.0000 0.0000
vn -0.0013 0.5049 -0.8632
vn -0.0026 1.0000 0.0000
vn -0.0013 0.5049 0.8632
vn -0.8628 0.5055 0.0000
vn -0.0026 -1.0000 0.0000
vn 0.0026 1.0000 0.0000
vn 0.0013 0.5049 -0.8632
vn 0.0000 0.5055 0.8628
vn 0.0000 -1.0000 0.0026
vn 0.8632 0.5049 -0.0013
vn 0.0000 1.0000 -0.0026
vn 0.0000 0.5055 -0.8628
vn 0.0000 -1.0000 -0.0026
vn -0.8632 0.5049 0.0013
vn 0.0000 1.0000 0.0026
vn 0.8632 0.5049 0.0013
vn -1.0000 0.0000 0.0000
vn 0.0000 0.0000 -1.0000
vn 1.0000 0.0000 0.0000
vn 0.0013 0.5049 0.8632
vn -0.8632 0.5049 -0.0013
usemtl Stage
s off
f 1/1/1 9/2/1 10/3/1 3/4/1
f 3/4/2 10/3/2 11/5/2 7/6/2
f 7/6/3 11/5/3 12/7/3 5/8/3
f 5/8/4 12/7/4 9/2/4 1/1/4
f 3/4/5 7/6/5 5/8/5 1/1/5
f 4/9/6 10/3/6 61/10/6 64/11/6
f 4/9/7 8/12/7 11/5/7 10/3/7
f 8/12/7 6/13/7 12/7/7 11/5/7
f 12/7/6 6/13/6 65/14/6 62/15/6
f 15/16/7 14/17/7 13/18/7 16/19/7
f 20/20/8 21/21/8 22/22/8 23/23/8
f 8/24/9 21/25/9 20/26/9 6/27/9
f 38/28/10 22/22/10 21/21/10 8/29/10
f 39/30/11 23/31/11 22/32/11 38/33/11
f 6/34/12 20/20/12 23/23/12 39/35/12
f 24/36/13 25/37/13 26/38/13 27/39/13
f 2/40/14 25/41/14 24/42/14 4/43/14
f 36/44/6 26/45/6 50/46/6 49/47/6
f 37/48/15 27/49/15 26/50/15 36/51/15
f 4/52/16 24/36/16 27/39/16 37/53/16
f 28/54/17 29/55/17 30/56/17 31/57/17
f 6/27/18 29/58/18 28/59/18 2/40/18
f 39/35/19 30/56/19 29/55/19 6/34/19
f 36/51/20 31/60/20 30/61/20 39/30/20
f 26/38/6 25/37/6 51/62/6 50/63/6
f 32/64/21 33/65/21 34/66/21 35/67/21
f 4/43/22 33/68/22 32/69/22 8/24/22
f 37/53/23 34/66/23 33/65/23 4/52/23
f 38/33/24 35/70/24 34/71/24 37/48/24
f 8/29/25 32/64/25 35/67/25 38/28/25
f 39/72/26 38/73/26 42/74/26 43/75/26
f 14/17/27 15/16/27 46/76/27 45/77/27
f 16/19/6 13/18/6 44/78/6 47/79/6
f 38/73/6 37/80/6 41/81/6 42/74/6
f 44/82/7 45/83/7 41/84/7 40/85/7
f 45/83/7 46/86/7 42/87/7 41/84/7
f 46/86/7 47/88/7 43/89/7 42/87/7
f 47/88/7 44/82/7 40/85/7 43/89/7
f 37/80/28 36/44/28 40/90/28 41/81/28
f 15/16/28 16/19/28 47/79/28 46/76/28
f 13/18/26 14/17/26 45/77/26 44/78/26
f 36/44/27 39/72/27 43/75/27 40/90/27
f 50/63/6 51/62/6 57/91/6 56/92/6
f 49/47/6 50/46/6 56/93/6 55/94/6
f 31/95/6 36/44/6 49/47/6 53/96/6
f 25/41/6 2/40/6 48/97/6 51/98/6
f 2/40/6 28/59/6 52/99/6 48/97/6
f 28/54/6 31/57/6 53/100/6 52/101/6
f 55/102/29 56/92/29 57/91/29 54/103/29
f 54/103/30 58/104/30 59/105/30 55/102/30
f 53/96/6 49/47/6 55/94/6 59/106/6
f 52/101/6 53/100/6 59/105/6 58/104/6
f 51/98/6 48/97/6 54/107/6 57/108/6
f 48/97/6 52/99/6 58/109/6 54/107/6
f 63/110/7 64/11/7 61/10/7 60/111/7
f 65/14/7 63/110/7 60/111/7 62/15/7
f 6/27/6 2/40/6 63/112/6 65/113/6
f 10/3/6 9/2/6 60/111/6 61/10/6
f 9/2/6 12/7/6 62/15/6 60/111/6
f 2/40/6 4/43/6 64/114/6 63/112/6
