# Blender v2.93.1 OBJ File: 'laser.blend'
# www.blender.org
mtllib laser.mtl
o Cylinder
v 0.051018 -618.346375 -0.631313
v 0.073125 618.346375 -0.629136
v 0.288728 -618.346375 -0.563733
v 0.308319 618.346375 -0.553262
v 0.445932 -618.346375 -0.445932
v 0.445932 618.346375 -0.445932
v 0.553262 -618.346375 -0.308319
v 0.563733 618.346375 -0.288728
v 0.638104 -618.346375 -0.015877
v 0.631313 618.346375 -0.051018
v 0.563734 -618.346375 0.288727
v 0.602781 618.346375 0.194459
v 0.410331 -618.346375 0.482481
v 0.482481 618.346375 0.410331
v 0.241337 -618.346375 0.582638
v 0.288728 618.346375 0.563733
v 0.073126 -618.346375 0.629136
v 0.123032 618.346375 0.618525
v -0.173201 -618.346375 0.609229
v -0.073126 618.346375 0.629136
v -0.367712 618.346375 0.521743
v -0.393158 -618.346375 0.496574
v -0.553262 -618.346375 0.308319
v -0.563734 618.346375 0.288727
v -0.629136 -618.346375 0.073125
v -0.631313 618.346375 0.051018
v -0.618525 -618.346375 -0.123032
v -0.618525 618.346375 -0.123032
v -0.563734 -618.346375 -0.288727
v -0.553262 618.346375 -0.308319
v -0.410331 -618.346375 -0.482481
v -0.393159 618.346375 -0.496574
v -0.194459 -618.346375 -0.602781
v -0.173201 618.346375 -0.609229
vt 0.924683 0.500000
vt 0.981567 1.000000
vt 0.919067 1.000000
vt 0.700317 1.000000
vt 0.674683 0.500000
vt 0.753903 0.500000
vt 0.637817 1.000000
vt 0.612183 0.500000
vt 0.575317 1.000000
vt 0.562500 0.500000
vt 0.481567 1.000000
vt 0.455933 0.500000
vt 0.518433 0.500000
vt 0.402152 1.000000
vt 0.393433 0.500000
vt 0.875000 0.500000
vt 0.875000 1.000000
vt 0.830933 0.500000
vt 0.825317 1.000000
vt 0.762817 1.000000
vt 0.531250 1.000000
vt 0.325317 1.000000
vt 0.330933 0.500000
vt 0.268433 0.500000
vt 0.262817 1.000000
vt 0.218750 0.500000
vt 0.218750 1.000000
vt 0.174683 0.500000
vt 0.169067 1.000000
vt 0.112183 0.500000
vt 0.106567 1.000000
vt 0.049683 0.500000
vt 0.044067 1.000000
vt 0.014612 0.296822
vt 0.296822 0.014612
vt 0.419706 0.419706
vt 0.000000 0.500000
vt 0.000000 1.000000
vt 0.601746 0.062689
vt 0.514612 0.296822
vt 0.841844 0.028269
vt 0.987183 0.500000
vt 0.431948 0.095211
vt 0.477333 0.176622
vt 0.488109 0.269204
vt 0.462634 0.358863
vt 0.366318 0.458649
vt 0.277617 0.487280
vt 0.184712 0.479787
vt 0.101746 0.437311
vt 0.041351 0.366318
vt 0.011891 0.230796
vt 0.037365 0.141137
vt 0.113373 0.056574
vt 0.222382 0.012720
vt 0.358863 0.037366
vt 0.541351 0.133682
vt 0.512720 0.222383
vt 0.537365 0.358863
vt 0.595211 0.431948
vt 0.676622 0.477333
vt 0.769204 0.488109
vt 0.919706 0.419706
vt 0.858863 0.462634
vt 0.958649 0.366318
vt 0.962634 0.141137
vt 0.987076 0.255848
vt 0.904789 0.068052
vt 0.777618 0.012720
vt 0.684712 0.020213
vn 0.3070 0.0000 -0.9517
vn 0.9715 -0.0000 0.2372
vn 0.7840 -0.0000 0.6207
vn 0.5099 -0.0000 0.8603
vn -0.0806 -0.0000 0.9968
vn -0.4559 -0.0000 0.8901
vn 0.6150 0.0000 -0.7885
vn 0.8002 0.0000 -0.5997
vn 0.9604 -0.0000 -0.2786
vn 0.2664 -0.0000 0.9639
vn 0.9933 0.0000 0.1155
vn 0.8735 0.0000 0.4868
vn 0.6207 0.0000 0.7840
vn -0.7618 0.0000 0.6479
vn 0.0540 0.0000 0.9985
vn -0.3425 0.0000 0.9395
vn -0.9619 0.0000 0.2735
vn -0.9973 0.0000 -0.0733
vn -0.9432 0.0000 -0.3322
vn -0.7618 0.0000 -0.6479
vn -0.4559 0.0000 -0.8901
vn 0.0000 1.0000 -0.0000
vn -0.0805 0.0000 -0.9968
vn 0.0000 -1.0000 0.0000
vn 0.2735 -0.0000 -0.9619
vn 0.5997 -0.0000 -0.8002
vn 0.7885 0.0000 -0.6150
vn 0.9619 -0.0000 -0.2735
vn 0.3140 0.0000 0.9494
vn -0.7652 0.0000 0.6437
vn -0.9517 -0.0000 0.3070
vn -0.9985 -0.0000 -0.0540
vn -0.9494 0.0000 -0.3140
vn -0.7840 -0.0000 -0.6207
vn -0.4868 -0.0000 -0.8735
vn 0.0000 1.0000 0.0012
vn 0.0000 1.0000 0.0003
vn 0.0000 1.0000 -0.0001
vn 0.0000 1.0000 0.0021
vn 0.0000 1.0000 0.0005
vn 0.0000 1.0000 -0.0004
vn 0.0000 1.0000 -0.0005
vn -0.1155 -0.0000 -0.9933
vn 0.0000 -1.0000 0.0001
vn 0.0000 -1.0000 -0.0005
vn 0.0000 -1.0000 0.0002
vn 0.0000 -1.0000 0.0009
vn 0.0000 -1.0000 -0.0001
usemtl Laser
s off
f 3/1/1 2/2/1 4/3/1
f 12/4/2 11/5/2 9/6/2
f 14/7/3 13/8/3 11/5/3
f 16/9/4 15/10/4 13/8/4
f 20/11/5 19/12/5 17/13/5
f 21/14/6 22/15/6 19/12/6
f 5/16/7 4/3/7 6/17/7
f 7/18/8 6/17/8 8/19/8
f 7/18/9 10/20/9 9/6/9
f 15/10/10 18/21/10 17/13/10
f 10/20/11 12/4/11 9/6/11
f 12/4/12 14/7/12 11/5/12
f 14/7/13 16/9/13 13/8/13
f 22/15/14 24/22/14 23/23/14
f 18/21/15 20/11/15 17/13/15
f 20/11/16 21/14/16 19/12/16
f 25/24/17 24/22/17 26/25/17
f 27/26/18 26/25/18 28/27/18
f 29/28/19 28/27/19 30/29/19
f 31/30/20 30/29/20 32/31/20
f 33/32/21 32/31/21 34/33/21
f 28/34/22 18/35/22 6/36/22
f 1/37/23 34/33/23 2/38/23
f 22/39/24 27/40/24 15/41/24
f 3/1/25 1/42/25 2/2/25
f 5/16/26 3/1/26 4/3/26
f 7/18/27 5/16/27 6/17/27
f 7/18/28 8/19/28 10/20/28
f 15/10/29 16/9/29 18/21/29
f 22/15/30 21/14/30 24/22/30
f 25/24/31 23/23/31 24/22/31
f 27/26/32 25/24/32 26/25/32
f 29/28/33 27/26/33 28/27/33
f 31/30/34 29/28/34 30/29/34
f 33/32/35 31/30/35 32/31/35
f 14/43/36 12/44/36 18/35/36
f 12/44/37 10/45/37 6/36/37
f 18/35/38 12/44/38 6/36/38
f 10/45/22 8/46/22 6/36/22
f 6/36/39 4/47/39 2/48/39
f 2/48/22 34/49/22 6/36/22
f 34/49/40 32/50/40 28/34/40
f 32/50/41 30/51/41 28/34/41
f 28/34/42 26/52/42 24/53/42
f 24/53/22 21/54/22 20/55/22
f 20/55/22 18/35/22 24/53/22
f 18/35/22 16/56/22 14/43/22
f 28/34/22 6/36/22 34/49/22
f 28/34/22 24/53/22 18/35/22
f 1/37/43 33/32/43 34/33/43
f 23/57/44 25/58/44 27/40/44
f 27/40/24 29/59/24 31/60/24
f 31/60/24 33/61/24 27/40/24
f 33/61/45 1/62/45 5/63/45
f 27/40/46 33/61/46 5/63/46
f 1/62/47 3/64/47 5/63/47
f 5/63/48 7/65/48 11/66/48
f 7/65/24 9/67/24 11/66/24
f 11/66/47 13/68/47 15/41/47
f 5/63/24 11/66/24 15/41/24
f 15/41/24 17/69/24 19/70/24
f 5/63/24 15/41/24 27/40/24
f 19/70/24 22/39/24 15/41/24
f 22/39/48 23/57/48 27/40/48
