# Blender v2.93.3 OBJ File: ''
# www.blender.org
mtllib laser.mtl
o Cylinder
v 2.309824 -2473.385498 -4.509972
v 0.585000 2473.385498 -5.032980
v 2.466552 2473.385498 -4.425988
v 4.822248 2473.385498 1.555780
v 4.509872 -2473.385498 2.309708
v 5.104832 -2473.385498 -0.127124
v 3.859848 2473.385498 3.282756
v 3.282648 -2473.385498 3.859740
v 2.309824 2473.385498 4.509972
v 1.930696 -2473.385498 4.660996
v -0.585008 2473.385498 5.033196
v -1.385608 -2473.385498 4.873724
v 0.585008 -2473.385498 5.032980
v -2.941696 2473.385498 4.174052
v -3.145264 -2473.385498 3.972484
v 3.567456 -2473.385498 -3.567564
v 3.567456 2473.385498 -3.567348
v 4.426096 -2473.385498 -2.466660
v 4.509864 2473.385498 -2.309716
v 5.050504 2473.385498 -0.408036
v 0.984256 2473.385498 4.948308
v -4.509872 2473.385498 2.309924
v -4.426096 -2473.385498 2.466444
v -5.033088 -2473.385498 0.584892
v -5.050504 2473.385498 0.408252
v -4.948200 -2473.385498 -0.984364
v -4.948200 2473.385498 -0.984148
v -4.509872 -2473.385498 -2.309924
v -4.426096 2473.385498 -2.466444
v -3.282648 -2473.385498 -3.859956
v -3.145272 2473.385498 -3.972484
v -1.555672 -2473.385498 -4.822356
v -1.385608 2473.385498 -4.873724
v 0.408144 -2473.385498 -5.050612
vt 0.924683 0.500000
vt 0.981567 1.000000
vt 0.919067 1.000000
vt 0.700317 1.000000
vt 0.674683 0.500000
vt 0.753903 0.500000
vt 0.637817 1.000000
vt 0.612183 0.500000
vt 0.575317 1.000000
vt 0.562500 0.500000
vt 0.481567 1.000000
vt 0.455933 0.500000
vt 0.518433 0.500000
vt 0.402152 1.000000
vt 0.393433 0.500000
vt 0.875000 0.500000
vt 0.875000 1.000000
vt 0.830933 0.500000
vt 0.825317 1.000000
vt 0.762817 1.000000
vt 0.531250 1.000000
vt 0.325317 1.000000
vt 0.330933 0.500000
vt 0.268433 0.500000
vt 0.262817 1.000000
vt 0.218750 0.500000
vt 0.218750 1.000000
vt 0.174683 0.500000
vt 0.169067 1.000000
vt 0.112183 0.500000
vt 0.106567 1.000000
vt 0.049683 0.500000
vt 0.044067 1.000000
vt 0.014612 0.296822
vt 0.296822 0.014612
vt 0.419706 0.419706
vt 0.000000 0.500000
vt 0.000000 1.000000
vt 0.601746 0.062689
vt 0.514612 0.296822
vt 0.841844 0.028269
vt 0.987183 0.500000
vt 0.431948 0.095211
vt 0.477333 0.176622
vt 0.488109 0.269204
vt 0.462634 0.358863
vt 0.366318 0.458649
vt 0.277617 0.487280
vt 0.184712 0.479787
vt 0.101746 0.437311
vt 0.041351 0.366318
vt 0.011891 0.230796
vt 0.037365 0.141137
vt 0.113373 0.056574
vt 0.222382 0.012720
vt 0.358863 0.037366
vt 0.541351 0.133682
vt 0.512720 0.222383
vt 0.537365 0.358863
vt 0.595211 0.431948
vt 0.676622 0.477333
vt 0.769204 0.488109
vt 0.919706 0.419706
vt 0.858863 0.462634
vt 0.958649 0.366318
vt 0.962634 0.141137
vt 0.987076 0.255848
vt 0.904789 0.068052
vt 0.777618 0.012720
vt 0.684712 0.020213
vn 0.3070 0.0000 -0.9517
vn 0.9715 -0.0000 0.2372
vn 0.7840 -0.0000 0.6207
vn 0.5098 -0.0000 0.8603
vn -0.0806 -0.0000 0.9968
vn -0.4559 -0.0000 0.8901
vn 0.6150 0.0000 -0.7885
vn 0.8002 0.0000 -0.5997
vn 0.9614 -0.0000 -0.2750
vn 0.9608 -0.0000 -0.2771
vn 0.9604 -0.0000 -0.2786
vn 0.2664 -0.0000 0.9639
vn 0.9933 0.0000 0.1155
vn 0.8735 0.0000 0.4868
vn 0.6207 0.0000 0.7840
vn -0.7642 0.0000 0.6450
vn -0.7628 0.0000 0.6466
vn -0.7618 0.0000 0.6479
vn 0.0540 0.0000 0.9985
vn -0.3425 0.0000 0.9395
vn -0.9619 0.0000 0.2735
vn -0.9973 0.0000 -0.0733
vn -0.9432 0.0000 -0.3322
vn -0.7618 0.0000 -0.6479
vn -0.4559 0.0000 -0.8901
vn 0.0000 1.0000 -0.0000
vn 0.0000 1.0000 0.0001
vn 0.0000 1.0000 0.0007
vn -0.0806 0.0000 -0.9968
vn 0.0000 -1.0000 -0.0001
vn 0.0000 -1.0000 0.0003
vn 0.0000 -1.0000 0.0000
vn 0.2735 -0.0000 -0.9619
vn 0.5997 -0.0000 -0.8002
vn 0.7885 0.0000 -0.6150
vn 0.9619 -0.0000 -0.2735
vn 0.3140 0.0000 0.9494
vn -0.7652 0.0000 0.6437
vn -0.9517 -0.0000 0.3070
vn -0.9985 -0.0000 -0.0540
vn -0.9494 0.0000 -0.3140
vn -0.7840 -0.0000 -0.6207
vn -0.4868 -0.0000 -0.8735
vn -0.0000 1.0000 0.0008
vn -0.0000 1.0000 0.0021
vn 0.0000 1.0000 0.0018
vn 0.0000 1.0000 0.0003
vn 0.0000 1.0000 -0.0005
vn 0.0000 1.0000 -0.0001
vn -0.0000 1.0000 -0.0003
vn 0.0000 1.0000 -0.0004
vn -0.1155 -0.0000 -0.9933
vn 0.0000 -1.0000 0.0005
vn -0.0000 -1.0000 -0.0004
vn 0.0000 -1.0000 0.0007
vn 0.0000 -1.0000 0.0009
vn 0.0000 -1.0000 -0.0006
usemtl Laser
s 1
f 1/1/1 2/2/1 3/3/1
f 4/4/2 5/5/2 6/6/2
f 7/7/3 8/8/3 5/5/3
f 9/9/4 10/10/4 8/8/4
f 11/11/5 12/12/5 13/13/5
f 14/14/6 15/15/6 12/12/6
f 16/16/7 3/3/7 17/17/7
f 18/18/8 17/17/8 19/19/8
f 18/18/9 20/20/10 6/6/11
f 10/10/12 21/21/12 13/13/12
f 20/20/13 4/4/13 6/6/13
f 4/4/14 7/7/14 5/5/14
f 7/7/15 9/9/15 8/8/15
f 15/15/16 22/22/17 23/23/18
f 21/21/19 11/11/19 13/13/19
f 11/11/20 14/14/20 12/12/20
f 24/24/21 22/22/21 25/25/21
f 26/26/22 25/25/22 27/27/22
f 28/28/23 27/27/23 29/29/23
f 30/30/24 29/29/24 31/31/24
f 32/32/25 31/31/25 33/33/25
f 27/34/26 21/35/27 17/36/28
f 34/37/29 33/33/29 2/38/29
f 15/39/30 26/40/31 10/41/32
f 1/1/33 34/42/33 2/2/33
f 16/16/34 1/1/34 3/3/34
f 18/18/35 16/16/35 17/17/35
f 18/18/9 19/19/36 20/20/10
f 10/10/37 9/9/37 21/21/37
f 15/15/16 14/14/38 22/22/17
f 24/24/39 23/23/39 22/22/39
f 26/26/40 24/24/40 25/25/40
f 28/28/41 26/26/41 27/27/41
f 30/30/42 28/28/42 29/29/42
f 32/32/43 30/30/43 31/31/43
f 7/43/44 4/44/28 21/35/27
f 4/44/28 20/45/26 17/36/28
f 21/35/27 4/44/28 17/36/28
f 20/45/26 19/46/26 17/36/28
f 17/36/28 3/47/45 2/48/46
f 2/48/46 33/49/47 17/36/28
f 33/49/47 31/50/26 27/34/26
f 31/50/26 29/51/48 27/34/26
f 27/34/26 25/52/48 22/53/49
f 22/53/49 14/54/28 11/55/50
f 11/55/50 21/35/27 22/53/49
f 21/35/27 9/56/51 7/43/44
f 27/34/26 17/36/28 33/49/47
f 27/34/26 22/53/49 21/35/27
f 34/37/52 32/32/52 33/33/52
f 23/57/30 24/58/32 26/40/31
f 26/40/31 28/59/53 30/60/54
f 30/60/54 32/61/30 26/40/31
f 32/61/30 34/62/55 16/63/32
f 26/40/31 32/61/30 16/63/32
f 34/62/55 1/64/32 16/63/32
f 16/63/32 18/65/32 5/66/53
f 18/65/32 6/67/32 5/66/53
f 5/66/53 8/68/56 10/41/32
f 16/63/32 5/66/53 10/41/32
f 10/41/32 13/69/32 12/70/57
f 16/63/32 10/41/32 26/40/31
f 12/70/57 15/39/30 10/41/32
f 15/39/30 23/57/30 26/40/31
