# Blender v2.93.2 OBJ File: 'duck.blend'
# www.blender.org
mtllib bongo1.mtl
o Cube
v -0.286632 0.245614 -0.604397
v -0.447949 -0.544479 -0.443080
v -0.286632 0.245614 0.372951
v -0.447949 -0.544479 0.211634
v -1.263981 0.245614 -0.604397
v -1.102664 -0.544479 -0.443080
v -1.263981 0.245614 0.372951
v -1.102664 -0.544479 0.211634
v -0.291356 0.555757 0.368227
v -1.259256 0.555757 0.368227
v -0.291356 0.555757 -0.599673
v -1.259256 0.555757 -0.599673
v -1.174399 -0.616215 -0.115723
v -0.775306 -0.616215 -0.514816
v -0.350997 -0.199694 -0.540032
v -1.199616 -0.199694 0.308587
v -0.350997 -0.199694 0.308587
v -1.199616 -0.199694 -0.540032
v -0.775306 0.245614 0.556204
v -0.103380 0.245614 -0.115723
v -0.775306 -0.616215 0.283370
v -1.447233 0.245614 -0.115723
v -0.775306 0.245614 -0.787650
v -0.376213 -0.616215 -0.115723
v -0.775306 0.564389 0.490348
v -0.169236 0.564389 -0.115723
v -1.381377 0.564389 -0.115723
v -0.775306 0.564389 -0.721794
v -1.332466 0.487388 -0.672882
v -0.218147 0.487388 -0.672882
v -0.218147 0.487388 0.441437
v -1.332466 0.487388 0.441437
v -0.775306 0.488239 -0.885907
v -0.775306 -0.206767 0.468145
v -1.359174 -0.206767 -0.115723
v -0.775306 -0.766759 -0.115723
v -0.191439 -0.206767 -0.115723
v -0.775306 -0.206767 -0.699591
v -0.775306 0.582502 -0.115723
v -0.775306 0.488239 0.654461
v -1.545490 0.488239 -0.115723
v -0.005123 0.488239 -0.115723
vt 0.337185 0.308619
vt 0.337185 0.332267
vt 0.330288 0.332267
vt 0.330288 0.308619
vt 0.337185 0.355913
vt 0.330288 0.355913
vt 0.329303 0.355911
vt 0.329303 0.332267
vt 0.329303 0.308623
vt 0.376592 0.261310
vt 0.353933 0.261314
vt 0.353769 0.237666
vt 0.376592 0.237665
vt 0.337185 0.261314
vt 0.336528 0.237666
vt 0.329303 0.214021
vt 0.352948 0.214021
vt 0.376592 0.214021
vt 0.376592 0.403212
vt 0.352948 0.403212
vt 0.353769 0.379562
vt 0.376592 0.379562
vt 0.329303 0.403212
vt 0.336528 0.379562
vt 0.353933 0.355913
vt 0.376592 0.355911
vt 0.423881 0.308623
vt 0.400236 0.308623
vt 0.400236 0.284966
vt 0.423881 0.284966
vt 0.376592 0.308623
vt 0.376592 0.284966
vt 0.400236 0.261310
vt 0.423881 0.261310
vt 0.353933 0.308619
vt 0.353933 0.284966
vt 0.337185 0.284966
vt 0.353933 0.332267
vt 0.376592 0.332267
vt 0.803564 0.347546
vt 0.779908 0.347546
vt 0.779908 0.323889
vt 0.803564 0.323889
vt 0.756251 0.347546
vt 0.756251 0.323889
vt 0.756251 0.300233
vt 0.779908 0.300233
vt 0.803564 0.300233
vt 0.330124 0.237666
vt 0.329303 0.214021
vt 0.330288 0.261314
vt 0.329303 0.261310
vt 0.329303 0.237665
vt 0.329303 0.214021
vt 0.330124 0.379562
vt 0.329303 0.403212
vt 0.329303 0.403212
vt 0.329303 0.379562
vt 0.330288 0.284966
vt 0.329303 0.284966
vn 0.3318 -0.3486 -0.8765
vn -0.3318 -0.3486 -0.8765
vn -0.1613 0.8642 -0.4765
vn 0.1613 0.8642 -0.4765
vn 0.3085 -0.3674 0.8774
vn 0.3469 -0.1811 0.9202
vn -0.3469 -0.1811 0.9202
vn -0.3085 -0.3674 0.8774
vn -0.8774 -0.3674 0.3085
vn -0.9202 -0.1811 0.3469
vn -0.9202 -0.1811 -0.3469
vn -0.8774 -0.3674 -0.3085
vn -0.3061 -0.9015 -0.3061
vn 0.3061 -0.9015 -0.3061
vn 0.3061 -0.9015 0.3061
vn -0.3061 -0.9015 0.3061
vn 0.8774 -0.3674 -0.3085
vn 0.9202 -0.1811 -0.3469
vn 0.9202 -0.1811 0.3469
vn 0.8774 -0.3674 0.3085
vn -0.3085 -0.3674 -0.8774
vn -0.3469 -0.1811 -0.9202
vn 0.3469 -0.1811 -0.9202
vn 0.3085 -0.3674 -0.8774
vn 0.0276 0.9992 -0.0276
vn -0.0276 0.9992 -0.0276
vn -0.0276 0.9992 0.0276
vn 0.0276 0.9992 0.0276
vn -0.3318 -0.3486 0.8765
vn 0.3318 -0.3486 0.8765
vn 0.1613 0.8642 0.4765
vn -0.1613 0.8642 0.4765
vn -0.8765 -0.3486 -0.3318
vn -0.8765 -0.3486 0.3318
vn -0.4765 0.8642 0.1613
vn -0.4765 0.8642 -0.1613
vn 0.8765 -0.3486 0.3318
vn 0.8765 -0.3486 -0.3318
vn 0.4765 0.8642 -0.1613
vn 0.4765 0.8642 0.1613
usemtl bongos
s off
f 1/1/1 23/2/1 33/3/1 30/4/1
f 23/2/2 5/5/2 29/6/2 33/3/2
f 33/3/3 29/6/3 12/7/3 28/8/3
f 30/4/4 33/3/4 28/8/4 11/9/4
f 4/10/5 17/11/5 34/12/5 21/13/5
f 17/11/6 3/14/6 19/15/6 34/12/6
f 34/12/7 19/15/7 7/16/7 16/17/7
f 21/13/8 34/12/8 16/17/8 8/18/8
f 8/19/9 16/20/9 35/21/9 13/22/9
f 16/20/10 7/23/10 22/24/10 35/21/10
f 35/21/11 22/24/11 5/5/11 18/25/11
f 13/22/12 35/21/12 18/25/12 6/26/12
f 6/27/13 14/28/13 36/29/13 13/30/13
f 14/28/14 2/31/14 24/32/14 36/29/14
f 36/29/15 24/32/15 4/10/15 21/33/15
f 13/30/16 36/29/16 21/33/16 8/34/16
f 2/31/17 15/35/17 37/36/17 24/32/17
f 15/35/18 1/1/18 20/37/18 37/36/18
f 37/36/19 20/37/19 3/14/19 17/11/19
f 24/32/20 37/36/20 17/11/20 4/10/20
f 6/26/21 18/25/21 38/38/21 14/39/21
f 18/25/22 5/5/22 23/2/22 38/38/22
f 38/38/23 23/2/23 1/1/23 15/35/23
f 14/39/24 38/38/24 15/35/24 2/31/24
f 11/40/25 28/41/25 39/42/25 26/43/25
f 28/41/26 12/44/26 27/45/26 39/42/26
f 39/42/27 27/45/27 10/46/27 25/47/27
f 26/43/28 39/42/28 25/47/28 9/48/28
f 7/16/29 19/15/29 40/49/29 32/50/29
f 19/15/30 3/14/30 31/51/30 40/49/30
f 40/49/31 31/51/31 9/52/31 25/53/31
f 32/50/32 40/49/32 25/53/32 10/54/32
f 5/5/33 22/24/33 41/55/33 29/6/33
f 22/24/34 7/23/34 32/56/34 41/55/34
f 41/55/35 32/56/35 10/57/35 27/58/35
f 29/6/36 41/55/36 27/58/36 12/7/36
f 3/14/37 20/37/37 42/59/37 31/51/37
f 20/37/38 1/1/38 30/4/38 42/59/38
f 42/59/39 30/4/39 11/9/39 26/60/39
f 31/51/40 42/59/40 26/60/40 9/52/40
