# Blender v2.93.3 OBJ File: ''
# www.blender.org
mtllib bongo2.mtl
o Cube.003
v 1.264541 0.254207 -0.604397
v 0.775867 0.254207 -0.787650
v 0.775867 0.496832 -0.885907
v 1.333027 0.495981 -0.672882
v 0.287193 0.254207 -0.604397
v 0.218708 0.495981 -0.672882
v 0.291917 0.564351 -0.599673
v 0.775867 0.572983 -0.721794
v 1.259817 0.564351 -0.599673
v 1.103225 -0.535885 0.211634
v 1.200177 -0.191100 0.308587
v 0.775867 -0.198173 0.468145
v 0.775867 -0.607621 0.283370
v 1.264541 0.254207 0.372951
v 0.775867 0.254207 0.556204
v 0.287193 0.254208 0.372951
v 0.351558 -0.191100 0.308587
v 0.448510 -0.535885 0.211634
v 0.192000 -0.198173 -0.115723
v 0.376774 -0.607621 -0.115723
v 0.103940 0.254207 -0.115723
v 0.351558 -0.191100 -0.540032
v 0.448510 -0.535885 -0.443080
v 0.775867 -0.607621 -0.514816
v 0.775867 -0.758165 -0.115723
v 1.103225 -0.535885 -0.443080
v 1.174960 -0.607621 -0.115723
v 1.200177 -0.191100 -0.540032
v 1.359735 -0.198173 -0.115723
v 1.447794 0.254207 -0.115723
v 0.775867 -0.198173 -0.699591
v 1.381938 0.572983 -0.115723
v 0.169796 0.572983 -0.115723
v 0.291917 0.564351 0.368227
v 0.775867 0.572983 0.490348
v 1.259817 0.564351 0.368227
v 0.775867 0.496832 0.654461
v 0.218708 0.495981 0.441437
v 1.333027 0.495981 0.441437
v 0.005683 0.496832 -0.115723
v 1.546051 0.496832 -0.115723
vt 0.319169 0.225285
vt 0.319169 0.250991
vt 0.311671 0.250991
vt 0.311671 0.225285
vt 0.319169 0.276697
vt 0.311671 0.276697
vt 0.310600 0.276697
vt 0.310600 0.250991
vt 0.310600 0.225285
vt 0.362012 0.173873
vt 0.337377 0.173872
vt 0.337199 0.148163
vt 0.362012 0.148163
vt 0.319169 0.173872
vt 0.318455 0.148163
vt 0.310600 0.122454
vt 0.336306 0.122454
vt 0.362012 0.122454
vt 0.362012 0.328109
vt 0.336306 0.328109
vt 0.337198 0.302403
vt 0.362012 0.302403
vt 0.310600 0.328109
vt 0.318455 0.302403
vt 0.337377 0.276697
vt 0.362012 0.276697
vt 0.413424 0.225285
vt 0.387718 0.225285
vt 0.387718 0.199579
vt 0.413424 0.199579
vt 0.362012 0.225285
vt 0.362012 0.199579
vt 0.387718 0.173873
vt 0.413424 0.173873
vt 0.337377 0.225285
vt 0.337377 0.199579
vt 0.319169 0.199579
vt 0.337377 0.250991
vt 0.362012 0.250991
vt 0.311493 0.148163
vt 0.310600 0.122454
vt 0.311671 0.173872
vt 0.310600 0.173873
vt 0.310600 0.148163
vt 0.310600 0.122454
vt 0.311493 0.302403
vt 0.310600 0.328109
vt 0.310600 0.328109
vt 0.310600 0.302403
vt 0.311671 0.199579
vt 0.310600 0.199579
vn 0.3318 -0.3486 -0.8765
vn -0.3318 -0.3486 -0.8765
vn -0.1613 0.8642 -0.4765
vn 0.1613 0.8642 -0.4765
vn 0.3085 -0.3674 0.8774
vn 0.3469 -0.1811 0.9202
vn -0.3469 -0.1811 0.9202
vn -0.3085 -0.3674 0.8774
vn -0.8774 -0.3674 0.3085
vn -0.9202 -0.1811 0.3469
vn -0.9202 -0.1811 -0.3469
vn -0.8774 -0.3674 -0.3085
vn -0.3061 -0.9015 -0.3061
vn 0.3061 -0.9015 -0.3061
vn 0.3061 -0.9015 0.3061
vn -0.3061 -0.9015 0.3061
vn 0.8774 -0.3674 -0.3085
vn 0.9202 -0.1811 -0.3469
vn 0.9202 -0.1811 0.3469
vn 0.8774 -0.3674 0.3085
vn -0.3085 -0.3674 -0.8774
vn -0.3469 -0.1811 -0.9202
vn 0.3469 -0.1811 -0.9202
vn 0.3085 -0.3674 -0.8774
vn -0.3318 -0.3486 0.8765
vn 0.3318 -0.3486 0.8765
vn 0.1613 0.8642 0.4765
vn -0.1613 0.8642 0.4765
vn -0.8765 -0.3486 -0.3318
vn -0.8765 -0.3486 0.3318
vn -0.4765 0.8642 0.1613
vn -0.4765 0.8642 -0.1613
vn 0.8765 -0.3486 0.3318
vn 0.8765 -0.3486 -0.3318
vn 0.4765 0.8642 -0.1613
vn 0.4765 0.8642 0.1613
usemtl bongos.001
s 1
f 1/1/1 2/2/1 3/3/1 4/4/1
f 2/2/2 5/5/2 6/6/2 3/3/2
f 3/3/3 6/6/3 7/7/3 8/8/3
f 4/4/4 3/3/4 8/8/4 9/9/4
f 10/10/5 11/11/5 12/12/5 13/13/5
f 11/11/6 14/14/6 15/15/6 12/12/6
f 12/12/7 15/15/7 16/16/7 17/17/7
f 13/13/8 12/12/8 17/17/8 18/18/8
f 18/19/9 17/20/9 19/21/9 20/22/9
f 17/20/10 16/23/10 21/24/10 19/21/10
f 19/21/11 21/24/11 5/5/11 22/25/11
f 20/22/12 19/21/12 22/25/12 23/26/12
f 23/27/13 24/28/13 25/29/13 20/30/13
f 24/28/14 26/31/14 27/32/14 25/29/14
f 25/29/15 27/32/15 10/10/15 13/33/15
f 20/30/16 25/29/16 13/33/16 18/34/16
f 26/31/17 28/35/17 29/36/17 27/32/17
f 28/35/18 1/1/18 30/37/18 29/36/18
f 29/36/19 30/37/19 14/14/19 11/11/19
f 27/32/20 29/36/20 11/11/20 10/10/20
f 23/26/21 22/25/21 31/38/21 24/39/21
f 22/25/22 5/5/22 2/2/22 31/38/22
f 31/38/23 2/2/23 1/1/23 28/35/23
f 24/39/24 31/38/24 28/35/24 26/31/24
f 16/16/25 15/15/25 37/40/25 38/41/25
f 15/15/26 14/14/26 39/42/26 37/40/26
f 37/40/27 39/42/27 36/43/27 35/44/27
f 38/41/28 37/40/28 35/44/28 34/45/28
f 5/5/29 21/24/29 40/46/29 6/6/29
f 21/24/30 16/23/30 38/47/30 40/46/30
f 40/46/31 38/47/31 34/48/31 33/49/31
f 6/6/32 40/46/32 33/49/32 7/7/32
f 14/14/33 30/37/33 41/50/33 39/42/33
f 30/37/34 1/1/34 4/4/34 41/50/34
f 41/50/35 4/4/35 9/9/35 32/51/35
f 39/42/36 41/50/36 32/51/36 36/43/36
o Cube.001_Cube.004
v 0.291917 0.564351 -0.599673
v 0.775867 0.572983 -0.721794
v 1.259817 0.564351 -0.599673
v 0.775867 0.591096 -0.115723
v 1.381938 0.572983 -0.115723
v 0.169796 0.572983 -0.115723
v 0.291917 0.564351 0.368227
v 0.775867 0.572983 0.490348
v 1.259817 0.564351 0.368227
vt 0.851972 0.746971
vt 0.826266 0.746971
vt 0.826266 0.721265
vt 0.851972 0.721265
vt 0.800560 0.746971
vt 0.800560 0.721265
vt 0.800560 0.695559
vt 0.826266 0.695559
vt 0.851972 0.695559
vn 0.0276 0.9992 -0.0276
vn -0.0276 0.9992 -0.0276
vn -0.0276 0.9992 0.0276
vn 0.0276 0.9992 0.0276
usemtl Note
s 1
f 44/52/37 43/53/37 45/54/37 46/55/37
f 43/53/38 42/56/38 47/57/38 45/54/38
f 45/54/39 47/57/39 48/58/39 49/59/39
f 46/55/40 45/54/40 49/59/40 50/60/40
